<svg xmlns="http://www.w3.org/2000/svg" xmlns:xlink="http://www.w3.org/1999/xlink" fill="none" version="1.1" width="14" height="14" viewBox="0 0 14 14"><g><g><g><path d="M10.7811,1.16711L12.1082,1.16711C13.1504,1.16711,13.9983,2.0144,14,3.05594L14,12.1112C14,13.1527,13.1521,14,12.1099,14L1.89013,14C0.847876,14,0,13.1527,0,12.1112L0,3.05594C0,2.0144,0.847876,1.16711,1.89013,1.16711L3.22059,1.16711L3.22059,0.629608C3.22059,0.281311,3.50209,0,3.85063,0C4.19916,0,4.48067,0.281311,4.48067,0.629608L4.48067,1.16711L9.52101,1.16711L9.52101,0.629608C9.52101,0.281311,9.80251,0,10.151,0C10.4996,0,10.7811,0.281311,10.7811,0.629608L10.7811,1.16711ZM1.89005,2.42627L3.22051,2.42627L3.22051,3.22668C3.22051,3.57495,3.50202,3.85629,3.85055,3.85629C4.19909,3.85629,4.4806,3.57495,4.4806,3.22668L4.4806,2.42627L9.52093,2.42627L9.52093,3.22668C9.52093,3.57495,9.80244,3.85629,10.151,3.85629C10.4995,3.85629,10.781,3.57495,10.781,3.22668L10.781,2.42627L12.1081,2.42627C12.455,2.42627,12.7382,2.70926,12.7382,3.05588L12.7382,4.5311L1.26001,4.5311L1.26001,3.05588C1.26001,2.70926,1.54152,2.42627,1.89005,2.42627ZM12.1081,12.7408L1.89005,12.7408C1.54319,12.7408,1.26001,12.4578,1.26001,12.1111L1.26001,5.79199L12.7398,5.79199L12.7398,12.1128C12.7382,12.4578,12.4567,12.7408,12.1081,12.7408Z" fill-rule="evenodd" fill="#999999" fill-opacity="1"/></g></g><g><g><path d="M10.605145720214844,8.273956298828125L3.042968720214844,8.273956298828125C2.6944347202148435,8.273956298828125,2.4129257202148438,8.555267298828126,2.4129257202148438,8.903564298828124C2.4129257202148438,9.251831298828126,2.6944347202148435,9.533146298828125,3.042968720214844,9.533146298828125L10.605145720214844,9.533146298828125C10.953675720214843,9.533146298828125,11.235185720214844,9.251831298828126,11.235185720214844,8.903564298828124C11.235185720214844,8.555267298828126,10.952005720214844,8.273956298828125,10.605145720214844,8.273956298828125Z" fill="#999999" fill-opacity="1"/></g></g></g></svg>