<svg xmlns="http://www.w3.org/2000/svg" xmlns:xlink="http://www.w3.org/1999/xlink" fill="none" version="1.1" width="17.333465576171875" height="12.3333740234375" viewBox="0 0 17.333465576171875 12.3333740234375"><g><g><path d="M12.899356494140624,11.666656494140625L3.984196494140625,11.666656494140625Q3.972476494140625,11.666656494140625,3.960786494140625,11.666656494140625Q3.798946494140625,11.666656494140625,3.637906494140625,11.651256494140625Q3.476836494140625,11.635756494140624,3.318116494140625,11.605056494140625Q3.159396494140625,11.574256494140625,3.004546494140625,11.528556494140625Q2.849666494140625,11.482756494140625,2.700166494140625,11.422456494140626Q2.550656494140625,11.362156494140624,2.407926494140625,11.287856494140625Q2.265226494140625,11.213556494140626,2.130646494140625,11.125956494140626Q1.996096494140625,11.038456494140625,1.871006494140625,10.938456494140626Q1.745906494140625,10.838456494140624,1.631469494140625,10.726956494140625Q1.517059494140625,10.615536494140626,1.4143984941406251,10.493716494140624Q1.311737494140625,10.371856494140625,1.221801494140625,10.240816494140624Q1.131896494140625,10.109776494140625,1.0556334941406251,9.970766494140625Q0.979339494140625,9.831756494140626,0.9174194941406251,9.686126494140625Q0.855468494140625,9.540526494140625,0.808502494140625,9.389706494140626Q0.761535694140625,9.238856494140625,0.729949994140625,9.084286494140626Q0.698394794140625,8.929686494140626,0.682525594140625,8.772826494140626Q0.666656494140625,8.615966494140626,0.666656494140625,8.458376494140625Q0.666656494140625,8.314576494140624,0.679870594140625,8.171356494140625Q0.693054194140625,8.028166494140624,0.719360394140625,7.886686494140625Q0.745666494140625,7.745176494140625,0.784881494140625,7.606566494140625Q0.824066494140625,7.467926494140625,0.875854494140625,7.333286494140625Q0.927612494140625,7.198636494140625,0.991546494140625,7.069026494140625Q1.055480494140625,6.939426494140625,1.131042494140625,6.815916494140625Q1.206634494140625,6.692386494140625,1.293243494140625,6.575956494140625Q1.379852494140625,6.459506494140625,1.476837494140625,6.351106494140625Q1.573791494140625,6.242676494140625,1.680326494140625,6.143126494140625Q1.786866494140625,6.043606494140625,1.902096494140625,5.953736494140625Q2.0173664941406253,5.863896494140625,2.140406494140625,5.784426494140625Q2.263456494140625,5.704956494140625,2.393276494140625,5.636536494140625Q2.523136494140625,5.568116494140625,2.658726494140625,5.511296494140625Q2.794346494140625,5.454466494140625,2.934626494140625,5.409666494140625Q3.074916494140625,5.364866494140625,3.218746494140625,5.332486494140625Q3.362576494140625,5.300106494140625,3.508816494140625,5.280366494140625Q3.529236494140625,5.046966494140625,3.571806494140625,4.816376494140625Q3.614346494140625,4.585816494140625,3.678676494140625,4.360106494140625Q3.742976494140625,4.134366494140625,3.828526494140625,3.915406494140625Q3.914066494140625,3.696476494140625,4.020076494140625,3.486176494140625Q4.126066494140625,3.275906494140625,4.2516464941406245,3.076106494140625Q4.377226494140626,2.876316494140625,4.521296494140625,2.688716494140625Q4.665346494140625,2.501126494140625,4.826656494140625,2.327336494140625Q4.987946494140625,2.153566494140625,5.165096494140625,1.995116494140625Q5.342226494140625,1.836636494140625,5.533686494140625,1.694856494140625Q5.725186494140625,1.553070494140625,5.929316494140625,1.429199494140625Q6.133486494140625,1.3053284941406251,6.348536494140625,1.2004394941406251Q6.563596494140625,1.095520494140625,6.787716494140625,1.010498494140625Q7.011836494140625,0.925476494140625,7.243076494140625,0.8610534941406249Q7.474336494140625,0.796630494140625,7.710726494140625,0.753356894140625Q7.947116494140625,0.710113494140625,8.186586494140624,0.688384994140625Q8.426086494140625,0.666656494140625,8.666626494140626,0.666656494140625Q8.878696494140625,0.666656494140625,9.090086494140625,0.683563194140625Q9.301456494140625,0.700439494140625,9.510716494140626,0.734130894140625Q9.719966494140625,0.767822494140625,9.925686494140624,0.818054494140625Q10.131406494140625,0.868316494140625,10.332216494140624,0.934783494140625Q10.533016494140625,1.0012204941406249,10.727556494140625,1.083465494140625Q10.922156494140625,1.165710494140625,11.109156494140626,1.263183494140625Q11.296156494140625,1.360656494140625,11.474256494140626,1.472686494140625Q11.652456494140624,1.584716494140625,11.820656494140625,1.710606494140625Q11.988856494140625,1.836456494140625,12.145856494140626,1.975276494140625Q12.302856494140626,2.114136494140625,12.447756494140625,2.265016494140625Q12.592556494140625,2.415896494140625,12.724256494140626,2.5778164941406247Q12.855956494140624,2.739746494140625,12.973656494140625,2.911616494140625Q13.091256494140625,3.083466494140625,13.194056494140625,3.264156494140625Q13.296956494140625,3.444826494140625,13.384256494140624,3.633056494140625Q13.471556494140625,3.821316494140625,13.542756494140624,4.015896494140625Q13.613956494140625,4.210476494140625,13.668556494140624,4.410066494140625Q13.825956494140625,4.441956494140625,13.979956494140625,4.486786494140625Q14.134056494140625,4.531616494140625,14.283556494140624,4.5891064941406245Q14.433156494140626,4.646546494140625,14.577156494140626,4.716216494140625Q14.721156494140626,4.785886494140625,14.858456494140626,4.867276494140625Q14.995856494140625,4.948636494140625,15.125556494140625,5.041136494140625Q15.255356494140624,5.133606494140625,15.376456494140625,5.236546494140625Q15.497656494140625,5.339476494140625,15.609356494140625,5.452056494140625Q15.721056494140624,5.564666494140625,15.822556494140626,5.686156494140625Q15.924056494140626,5.807616494140625,16.014456494140624,5.937076494140625Q16.104956494140623,6.066556494140625,16.183656494140624,6.203036494140625Q16.262456494140626,6.339536494140625,16.329056494140623,6.482086494140625Q16.395656494140624,6.624636494140625,16.449456494140627,6.772186494140625Q16.503256494140626,6.919736494140625,16.543956494140623,7.071196494140625Q16.584756494140628,7.222686494140625,16.612056494140624,7.377016494140625Q16.639356494140625,7.531306494140625,16.653056494140625,7.687346494140625Q16.666756494140625,7.843356494140625,16.666756494140625,7.999936494140625Q16.666756494140625,8.180086494140625,16.648656494140624,8.359346494140624Q16.630556494140627,8.538606494140625,16.594456494140623,8.715266494140625Q16.558356494140625,8.891936494140625,16.504656494140626,9.064326494140625Q16.450956494140627,9.236696494140626,16.380156494140625,9.403106494140625Q16.309456494140626,9.569546494140624,16.222256494140623,9.728396494140625Q16.135056494140628,9.887266494140626,16.032256494140626,10.037046494140625Q15.929556494140625,10.186826494140625,15.812256494140625,10.326046494140625Q15.694856494140625,10.465306494140625,15.564156494140626,10.592686494140626Q15.433356494140625,10.720056494140625,15.290356494140624,10.834356494140625Q15.147356494140626,10.948556494140625,14.993656494140625,11.048656494140625Q14.839856494140625,11.148756494140626,14.676756494140625,11.233656494140625Q14.513656494140625,11.318556494140624,14.342756494140625,11.387556494140625Q14.171856494140625,11.456456494140625,13.994856494140626,11.508756494140625Q13.817956494140626,11.561056494140624,13.636556494140626,11.596156494140626Q13.455156494140626,11.631256494140626,13.271056494140625,11.648956494140625Q13.087056494140626,11.666656494140625,12.902056494140625,11.666656494140625L12.899356494140624,11.666656494140625Z" fill-rule="evenodd" fill="#3678E9" fill-opacity="1"/></g><g><path d="M12.8994,12.3333L3.98419,12.3333L3.96307,12.3333Q0,12.3333,0,8.45837Q0,5.08102,3.41971,4.61969L3.50882,5.28036L2.8447,5.22229Q3.03885,3.00259,4.72061,1.49823Q6.39554,0,8.66663,0Q13.153,0,14.3116,4.23413L13.6685,4.41006L13.8008,3.75668Q17.3335,4.47214,17.3335,7.99994Q17.3335,9.80005,16.0293,11.0703Q14.7325,12.3333,12.9021,12.3333L12.8994,12.3333ZM12.8996,11L12.9021,11Q16.0001,11,16.0001,7.99994Q16.0001,5.5625,13.5362,5.06348L13.1339,4.98199L13.0255,4.58603Q12.1355,1.33331,8.66663,1.33331Q4.52328,1.33331,4.17294,5.33847L4.1265,5.86975L3.59796,5.94107Q1.33331,6.24655,1.33331,8.45837Q1.33331,9.50598,2.09662,10.2494Q2.86731,11.0001,3.95847,11.0001L3.98419,11L12.8996,11Z" fill="#3678E9" fill-opacity="1"/></g></g></svg>