<svg xmlns="http://www.w3.org/2000/svg" xmlns:xlink="http://www.w3.org/1999/xlink" fill="none" version="1.1" width="12" height="14" viewBox="0 0 12 14"><g><g><g><path d="M0.441406,3.45108L2.61612,0.746674C2.99576,0.274597,3.56891,0,4.17471,0L10,0C11.1046,0,12,0.895416,12,2L12,12C12,13.1046,11.1046,14,10,14L2,14C0.895416,14,0,13.1046,0,12L0,4.70438C0,4.24854,0.155731,3.80634,0.441406,3.45108Z" fill-rule="evenodd" fill="#3678E9" fill-opacity="1"/></g></g><g><g><path d="M6.584930419921875,2L7.784940419921875,2L7.784940419921875,6L6.584930419921875,6L6.584930419921875,2Z" fill-rule="evenodd" fill="#EEF0F4" fill-opacity="1"/></g></g><g><g><rect x="4" y="2" width="1.2000000476837158" height="4" rx="0" fill="#EEF0F4" fill-opacity="1"/></g></g><g><g><rect x="9" y="2" width="1.2000000476837158" height="4" rx="0" fill="#EEF0F4" fill-opacity="1"/></g></g></g></svg>