<svg xmlns="http://www.w3.org/2000/svg" xmlns:xlink="http://www.w3.org/1999/xlink" fill="none" version="1.1" width="90" height="90" viewBox="0 0 90 90"><defs><filter id="master_svg0_1_01099" filterUnits="objectBoundingBox" color-interpolation-filters="sRGB" x="-16" y="-14" width="95" height="95"><feFlood flood-opacity="0" result="BackgroundImageFix"/><feColorMatrix in="SourceAlpha" type="matrix" values="0 0 0 0 0 0 0 0 0 0 0 0 0 0 0 0 0 0 127 0"/><feOffset dy="2" dx="0"/><feGaussianBlur stdDeviation="4"/><feColorMatrix type="matrix" values="0 0 0 0 0.029464339837431908 0 0 0 0 0.2081926465034485 0 0 0 0 0.37238654494285583 0 0 0 0.10000000149011612 0"/><feBlend mode="normal" in2="BackgroundImageFix" result="effect1_dropShadow"/><feBlend mode="normal" in="SourceGraphic" in2="effect1_dropShadow" result="shape"/></filter><filter id="master_svg1_1_01105" filterUnits="objectBoundingBox" color-interpolation-filters="sRGB" x="-16" y="-14" width="92" height="92"><feFlood flood-opacity="0" result="BackgroundImageFix"/><feColorMatrix in="SourceAlpha" type="matrix" values="0 0 0 0 0 0 0 0 0 0 0 0 0 0 0 0 0 0 127 0"/><feOffset dy="2" dx="0"/><feGaussianBlur stdDeviation="4"/><feColorMatrix type="matrix" values="0 0 0 0 0.029464339837431908 0 0 0 0 0.2081926465034485 0 0 0 0 0.37238654494285583 0 0 0 0.10000000149011612 0"/><feBlend mode="normal" in2="BackgroundImageFix" result="effect1_dropShadow"/><feBlend mode="normal" in="SourceGraphic" in2="effect1_dropShadow" result="shape"/></filter><mask id="master_svg2_1_01105" style="mask-type:alpha" maskUnits="userSpaceOnUse"><g filter="url(#master_svg1_1_01105)"><g><ellipse cx="45" cy="43" rx="30" ry="30" fill="#FFFFFF" fill-opacity="1"/></g></g></mask><mask id="master_svg3_1_01115" style="mask-type:alpha" maskUnits="userSpaceOnUse"><g><g><path d="M38.078598421875,53.34683385253906Q38.238887421875,57.51429385253906,37.597740221875,58.47601385253906Q36.956592421875,59.43773385253906,42.566632421875,63.92582385253906L48.336982421875,63.92582385253906L52.183882421875,58.95687385253906Q51.061882421875,57.99514385253906,51.222082421875,53.186533852539064C51.295582421875,50.98347485253906,47.856082421875,50.62196385253906,44.009212421875,50.94253585253906Q42.070992421875,51.10404985253906,38.078598421875,53.34683385253906Z" fill-rule="evenodd" fill="#FFFFFF" fill-opacity="1"/></g></g></mask><linearGradient x1="0.5" y1="0" x2="0.5" y2="1" id="master_svg4_1_04935"><stop offset="0%" stop-color="#E19481" stop-opacity="1"/><stop offset="100%" stop-color="#F5C2B1" stop-opacity="1"/></linearGradient><mask id="master_svg5_1_01131" style="mask-type:alpha" maskUnits="userSpaceOnUse"><g><g><path d="M56.351303715820315,40.043029787890625C57.95417371582031,40.36360158789063,57.48788371582031,42.76791258789063,57.152743715820314,44.050202587890624C56.817593715820315,45.33249258789063,55.71015371582031,48.53822258789062,54.748423715820316,48.53822258789062C53.786712715820315,48.53822258789062,53.626426715820315,47.73680258789062,53.46614071582031,46.93536258789062C53.30585471582031,46.13392258789062,54.748423715820316,39.722457587890624,56.351303715820315,40.043029787890625Z" fill-rule="evenodd" fill="#FFFFFF" fill-opacity="1"/></g></g></mask><mask id="master_svg6_1_01137" style="mask-type:alpha" maskUnits="userSpaceOnUse"><g transform="matrix(-1,0,0,1,72.35885620117188,0)"><g><path d="M39.077768100585935,40.37522888308594C40.53144810058594,40.20330766308594,40.21434810058594,43.10009466308594,39.879208100585934,44.382404663085936C39.544058100585936,45.664684663085936,38.436628100585935,48.87042466308594,37.47489810058594,48.87042466308594C36.513180100585934,48.87042466308594,36.352894100585935,48.069004663085934,36.19260790058594,47.267544663085935C36.073803100585934,46.67353466308594,36.76994310058594,43.098514663085936,37.806568100585935,41.32531766308594C38.16850810058594,40.70620766308594,38.70214810058594,40.419647263085935,39.077768100585935,40.37522888308594Z" fill-rule="evenodd" fill="#FFFFFF" fill-opacity="1"/></g></g></mask><mask id="master_svg7_1_04735" style="mask-type:alpha" maskUnits="userSpaceOnUse"><g><g><path d="M44.65039618530273,57.03341477050781C47.21499618530274,57.03341477050781,49.45899618530274,56.552614770507816,52.18379618530274,52.54541477050781C54.90869618530273,48.538214770507814,55.22929618530273,42.447314770507816,54.10729618530273,38.119584770507814C52.98529618530273,33.79183477050781,50.10009618530273,31.06697077050781,46.092896185302735,31.387542770507814C42.085776185302734,31.708114770507812,36.31544618530273,31.868392770507814,35.03315018530274,38.76074477050781C33.750854185302735,45.65311477050781,35.67429618530274,51.10281477050781,38.23888618530273,53.66741477050781C40.803476185302735,56.23201477050782,42.085776185302734,57.03341477050781,44.65039618530273,57.03341477050781Z" fill-rule="evenodd" fill="#FFFFFF" fill-opacity="1"/></g></g></mask><mask id="master_svg8_1_04743" style="mask-type:alpha" maskUnits="userSpaceOnUse"><g><g><path d="M34.87286306396484,42.44736181640625Q34.23171306396485,40.363561816406246,33.10970706396484,40.363561816406246C32.14798706396484,39.081261816406254,31.667126063964844,28.66266181640625,37.27716306396484,27.05979881640625C42.88725306396484,25.45692481640625,49.45895306396484,26.25836181640625,53.30585306396485,29.46409181640625Q57.152753063964845,32.66983181640625,56.191053063964844,40.04306181640625Q54.748453063964845,41.00476181640625,54.748453063964845,42.44736181640625C54.26755306396484,42.76786181640625,54.26755306396484,42.76786181640625,54.10725306396485,41.96646181640625C53.94695306396484,41.16506181640625,54.86965306396485,36.71786181640625,51.54265306396485,34.272701816406254C48.21575306396484,31.827571816406248,47.69585306396485,30.42581181640625,40.96376306396485,32.18896181640625Q34.23171306396485,33.95213181640625,35.19343306396485,41.96646181640625Q35.24819306396484,42.36516181640625,35.19343306396485,42.44736181640625Q35.13868306396484,42.529461816406254,34.87286306396484,42.44736181640625Z" fill-rule="evenodd" fill="#FFFFFF" fill-opacity="1"/></g></g></mask><linearGradient x1="-1.1102230246251565e-16" y1="0.5" x2="1" y2="0.5" id="master_svg9_1_04940"><stop offset="0%" stop-color="#687897" stop-opacity="1"/><stop offset="100%" stop-color="#4C5E81" stop-opacity="1"/></linearGradient><mask id="master_svga_1_04751" style="mask-type:alpha" maskUnits="userSpaceOnUse"><g><g><path d="M36.1784553527832,29.94496158203125C36.1784553527832,26.73921158203125,38.8645453527832,24.17462158203125,44.404595352783204,24.17462158203125C49.9446553527832,24.17462158203125,52.7986553527832,29.303801582031248,56.659855352783204,27.86123158203125C58.002955352783204,32.02868158203125,54.141655352783204,37.31812158203125,47.4264553527832,37.31812158203125C40.7112253527832,37.31812158203125,36.1784553527832,33.15069158203125,36.1784553527832,29.94496158203125Z" fill-rule="evenodd" fill="#FFFFFF" fill-opacity="1"/></g></g></mask></defs><g><g><g filter="url(#master_svg0_1_01099)"><g><ellipse cx="45" cy="43" rx="30" ry="30" fill="#BCE7FC" fill-opacity="1"/></g><g><ellipse cx="45" cy="43" rx="31.5" ry="31.5" fill-opacity="0" stroke-opacity="1" stroke="#FFFFFF" fill="none" stroke-width="3"/></g></g><g mask="url(#master_svg2_1_01105)"><g><g><g><g><g><path d="M38.078598421875,53.34683385253906Q38.238887421875,57.51429385253906,37.597740221875,58.47601385253906Q36.956592421875,59.43773385253906,42.566632421875,63.92582385253906L48.336982421875,63.92582385253906L52.183882421875,58.95687385253906Q51.061882421875,57.99514385253906,51.222082421875,53.186533852539064C51.295582421875,50.98347485253906,47.856082421875,50.62196385253906,44.009212421875,50.94253585253906Q42.070992421875,51.10404985253906,38.078598421875,53.34683385253906Z" fill-rule="evenodd" fill="#FACBB8" fill-opacity="1"/></g></g><g mask="url(#master_svg3_1_01115)"><g><g><g><path d="M36.03761291503906,58.753843632812504Q44.92819291503906,56.3922836328125,53.028012915039064,58.753843632812504Q61.12781291503906,61.1154236328125,49.98261291503906,50.5792236328125L36.03761291503906,50.5792236328125L36.03761291503906,58.753843632812504Z" fill-rule="evenodd" fill="url(#master_svg4_1_04935)" fill-opacity="1"/></g></g></g></g></g><g><g><path d="M25.255647653808595,63.76546984863281L36.47570765380859,59.27745084863281Q37.5258076538086,58.64279184863281,37.68610765380859,58.32221984863281C39.44920765380859,60.56623984863281,42.4063076538086,61.52146984863281,44.81060765380859,61.52146984863281C47.214907653808595,61.52146984863281,50.9496076538086,59.76479984863281,51.75100765380859,58.32221984863281Q52.71400765380859,59.12188684863281,53.46610765380859,59.437739848632816L64.7573076538086,63.76546984863281L68.5623076538086,66.99999984863281Q56.43870765380859,74.9855198486328,44.81060765380859,74.9855198486328Q33.182607653808596,74.9855198486328,21.431907653808594,66.99999984863281L25.255647653808595,63.76546984863281Z" fill-rule="evenodd" fill="#56698E" fill-opacity="1"/></g></g><g><g><path d="M56.351303715820315,40.043029787890625C57.95417371582031,40.36360158789063,57.48788371582031,42.76791258789063,57.152743715820314,44.050202587890624C56.817593715820315,45.33249258789063,55.71015371582031,48.53822258789062,54.748423715820316,48.53822258789062C53.786712715820315,48.53822258789062,53.626426715820315,47.73680258789062,53.46614071582031,46.93536258789062C53.30585471582031,46.13392258789062,54.748423715820316,39.722457587890624,56.351303715820315,40.043029787890625Z" fill-rule="evenodd" fill="#F7C8B6" fill-opacity="1"/></g></g><g mask="url(#master_svg5_1_01131)"></g><g transform="matrix(-1,0,0,1,72.35885620117188,0)"><g><path d="M39.077768100585935,40.37522888308594C40.53144810058594,40.20330766308594,40.21434810058594,43.10009466308594,39.879208100585934,44.382404663085936C39.544058100585936,45.664684663085936,38.436628100585935,48.87042466308594,37.47489810058594,48.87042466308594C36.513180100585934,48.87042466308594,36.352894100585935,48.069004663085934,36.19260790058594,47.267544663085935C36.073803100585934,46.67353466308594,36.76994310058594,43.098514663085936,37.806568100585935,41.32531766308594C38.16850810058594,40.70620766308594,38.70214810058594,40.419647263085935,39.077768100585935,40.37522888308594Z" fill-rule="evenodd" fill="#F7C8B6" fill-opacity="1"/></g></g><g mask="url(#master_svg6_1_01137)"></g><g><g><path d="M44.65039618530273,57.03341477050781C47.21499618530274,57.03341477050781,49.45899618530274,56.552614770507816,52.18379618530274,52.54541477050781C54.90869618530273,48.538214770507814,55.22929618530273,42.447314770507816,54.10729618530273,38.119584770507814C52.98529618530273,33.79183477050781,50.10009618530273,31.06697077050781,46.092896185302735,31.387542770507814C42.085776185302734,31.708114770507812,36.31544618530273,31.868392770507814,35.03315018530274,38.76074477050781C33.750854185302735,45.65311477050781,35.67429618530274,51.10281477050781,38.23888618530273,53.66741477050781C40.803476185302735,56.23201477050782,42.085776185302734,57.03341477050781,44.65039618530273,57.03341477050781Z" fill-rule="evenodd" fill="#FCDEC5" fill-opacity="1"/></g></g><g mask="url(#master_svg7_1_04735)"></g><g><g><path d="M34.87286306396484,42.44736181640625Q34.23171306396485,40.363561816406246,33.10970706396484,40.363561816406246C32.14798706396484,39.081261816406254,31.667126063964844,28.66266181640625,37.27716306396484,27.05979881640625C42.88725306396484,25.45692481640625,49.45895306396484,26.25836181640625,53.30585306396485,29.46409181640625Q57.152753063964845,32.66983181640625,56.191053063964844,40.04306181640625Q54.748453063964845,41.00476181640625,54.748453063964845,42.44736181640625C54.26755306396484,42.76786181640625,54.26755306396484,42.76786181640625,54.10725306396485,41.96646181640625C53.94695306396484,41.16506181640625,54.86965306396485,36.71786181640625,51.54265306396485,34.272701816406254C48.21575306396484,31.827571816406248,47.69585306396485,30.42581181640625,40.96376306396485,32.18896181640625Q34.23171306396485,33.95213181640625,35.19343306396485,41.96646181640625Q35.24819306396484,42.36516181640625,35.19343306396485,42.44736181640625Q35.13868306396484,42.529461816406254,34.87286306396484,42.44736181640625Z" fill-rule="evenodd" fill="#5B6984" fill-opacity="1"/></g></g><g mask="url(#master_svg8_1_04743)"></g><g><g><path d="M36.1784553527832,29.94496158203125C36.1784553527832,26.73921158203125,38.8645453527832,24.17462158203125,44.404595352783204,24.17462158203125C49.9446553527832,24.17462158203125,52.7986553527832,29.303801582031248,56.659855352783204,27.86123158203125C58.002955352783204,32.02868158203125,54.141655352783204,37.31812158203125,47.4264553527832,37.31812158203125C40.7112253527832,37.31812158203125,36.1784553527832,33.15069158203125,36.1784553527832,29.94496158203125Z" fill-rule="evenodd" fill="url(#master_svg9_1_04940)" fill-opacity="1"/></g></g><g mask="url(#master_svga_1_04751)"></g></g></g></g></g></g></svg>