<svg xmlns="http://www.w3.org/2000/svg" xmlns:xlink="http://www.w3.org/1999/xlink" fill="none" version="1.1" width="15.20001220703125" height="11.200004577636719" viewBox="0 0 15.20001220703125 11.200004577636719"><g><path d="M11.3059,10Q12.4197,10,13.2084,9.20197Q14,8.40096,14,7.26671Q14,5.04223,11.8531,4.59035L11.4908,4.5141L11.3965,4.15602Q10.6181,1.2,7.59999,1.2Q6.07141,1.2,4.94464,2.24716Q3.81514,3.29686,3.68483,4.84455L3.64462,5.32191L3.17021,5.3884Q1.20001,5.66451,1.20001,7.68328Q1.20001,9.99993,3.48233,9.99996L4.08232,9.99996L4.08232,10.6L3.48233,10.6L3.48233,9.99996L11.3059,10ZM11.3059,11.2L2.88232,11.2L2.88232,10.6L3.48233,10.6L3.48233,11.2Q2.03781,11.1999,1.01744,10.1674Q0,9.13786,0,7.68328Q0,4.62095,3.00366,4.20001L3.08693,4.7942L2.48906,4.74386Q2.65831,2.73375,4.12775,1.36814Q5.5999,0,7.59999,0Q11.543,0,12.5569,3.85044L11.9767,4.00323L12.1003,3.41609Q15.2,4.06851,15.2,7.26671Q15.2,8.89387,14.0619,10.0455Q12.9209,11.2,11.3059,11.2Z" fill="#ffffff" fill-opacity="1"/></g></svg>