<svg xmlns="http://www.w3.org/2000/svg" xmlns:xlink="http://www.w3.org/1999/xlink" fill="none" version="1.1" width="18.333354949951172" height="16.666667938232422" viewBox="0 0 18.333354949951172 16.666667938232422"><g><path d="M0.077413,0.482603C0.213962,0.188299,0.508906,0,0.833342,0C0.833342,0,17.5,0,17.5,0C17.8244,0,18.1194,0.188299,18.2559,0.482603C18.3925,0.776906,18.3458,1.12371,18.1363,1.37144C18.1363,1.37144,11.6667,9.02175,11.6667,9.02175C11.6667,9.02175,11.6667,15.8333,11.6667,15.8333C11.6667,16.1222,11.5172,16.3903,11.2714,16.5422C11.0257,16.6941,10.719,16.7078,10.4607,16.5787C10.4607,16.5787,7.12733,14.912,7.12733,14.912C6.84502,14.7708,6.66667,14.4823,6.66667,14.1667C6.66667,14.1667,6.66667,9.02175,6.66667,9.02175C6.66667,9.02175,0.197036,1.37144,0.197036,1.37144C-0.0124617,1.12371,-0.0591356,0.776906,0.077413,0.482603C0.077413,0.482603,0.077413,0.482603,0.077413,0.482603ZM2.62943,1.66667C2.62943,1.66667,8.13632,8.17856,8.13632,8.17856C8.26354,8.329,8.33333,8.51967,8.33333,8.71667C8.33333,8.71667,8.33333,13.6517,8.33333,13.6517C8.33333,13.6517,10,14.485,10,14.485C10,14.485,10,8.71667,10,8.71667C10,8.51967,10.0698,8.329,10.197,8.17856C10.197,8.17856,15.7039,1.66667,15.7039,1.66667C15.7039,1.66667,2.62943,1.66667,2.62943,1.66667C2.62943,1.66667,2.62943,1.66667,2.62943,1.66667Z" fill-rule="evenodd" fill="#767676" fill-opacity="1"/></g></svg>