<svg xmlns="http://www.w3.org/2000/svg" xmlns:xlink="http://www.w3.org/1999/xlink" fill="none" version="1.1" width="16.66666603088379" height="11.666666030883789" viewBox="0 0 16.66666603088379 11.666666030883789"><g><path d="M0,0.833333C0,0.373096,0.373096,0,0.833333,0C0.833333,0,0.841667,0,0.841667,0C1.3019,0,1.675,0.373096,1.675,0.833333C1.675,1.29357,1.3019,1.66667,0.841667,1.66667C0.841667,1.66667,0.833333,1.66667,0.833333,1.66667C0.373096,1.66667,0,1.29357,0,0.833333C0,0.833333,0,0.833333,0,0.833333ZM4.16667,0.833333C4.16667,0.373096,4.53977,0,5,0C5,0,15.8333,0,15.8333,0C16.2936,0,16.6667,0.373096,16.6667,0.833333C16.6667,1.29357,16.2936,1.66667,15.8333,1.66667C15.8333,1.66667,5,1.66667,5,1.66667C4.53977,1.66667,4.16667,1.29357,4.16667,0.833333C4.16667,0.833333,4.16667,0.833333,4.16667,0.833333ZM0,5.83333C0,5.3731,0.373096,5,0.833333,5C0.833333,5,0.841667,5,0.841667,5C1.3019,5,1.675,5.3731,1.675,5.83333C1.675,6.29357,1.3019,6.66667,0.841667,6.66667C0.841667,6.66667,0.833333,6.66667,0.833333,6.66667C0.373096,6.66667,0,6.29357,0,5.83333C0,5.83333,0,5.83333,0,5.83333ZM4.16667,5.83333C4.16667,5.3731,4.53977,5,5,5C5,5,15.8333,5,15.8333,5C16.2936,5,16.6667,5.3731,16.6667,5.83333C16.6667,6.29357,16.2936,6.66667,15.8333,6.66667C15.8333,6.66667,5,6.66667,5,6.66667C4.53977,6.66667,4.16667,6.29357,4.16667,5.83333C4.16667,5.83333,4.16667,5.83333,4.16667,5.83333ZM0,10.8333C0,10.3731,0.373096,10,0.833333,10C0.833333,10,0.841667,10,0.841667,10C1.3019,10,1.675,10.3731,1.675,10.8333C1.675,11.2936,1.3019,11.6667,0.841667,11.6667C0.841667,11.6667,0.833333,11.6667,0.833333,11.6667C0.373096,11.6667,0,11.2936,0,10.8333C0,10.8333,0,10.8333,0,10.8333ZM4.16667,10.8333C4.16667,10.3731,4.53977,10,5,10C5,10,15.8333,10,15.8333,10C16.2936,10,16.6667,10.3731,16.6667,10.8333C16.6667,11.2936,16.2936,11.6667,15.8333,11.6667C15.8333,11.6667,5,11.6667,5,11.6667C4.53977,11.6667,4.16667,11.2936,4.16667,10.8333C4.16667,10.8333,4.16667,10.8333,4.16667,10.8333Z" fill-rule="evenodd" fill="#767676" fill-opacity="1"/></g></svg>