<svg xmlns="http://www.w3.org/2000/svg" xmlns:xlink="http://www.w3.org/1999/xlink" fill="none" version="1.1" width="16.66666603088379" height="16.66666603088379" viewBox="0 0 16.66666603088379 16.66666603088379"><g><path d="M0,0.833333C0,0.373096,0.373096,0,0.833333,0C0.833333,0,6.66667,0,6.66667,0C7.1269,0,7.5,0.373096,7.5,0.833333C7.5,0.833333,7.5,6.66667,7.5,6.66667C7.5,7.1269,7.1269,7.5,6.66667,7.5C6.66667,7.5,0.833333,7.5,0.833333,7.5C0.373096,7.5,0,7.1269,0,6.66667C0,6.66667,0,0.833333,0,0.833333C0,0.833333,0,0.833333,0,0.833333ZM1.66667,1.66667C1.66667,1.66667,1.66667,5.83333,1.66667,5.83333C1.66667,5.83333,5.83333,5.83333,5.83333,5.83333C5.83333,5.83333,5.83333,1.66667,5.83333,1.66667C5.83333,1.66667,1.66667,1.66667,1.66667,1.66667C1.66667,1.66667,1.66667,1.66667,1.66667,1.66667ZM9.16667,0.833333C9.16667,0.373096,9.53975,0,10,0C10,0,15.8333,0,15.8333,0C16.2936,0,16.6667,0.373096,16.6667,0.833333C16.6667,0.833333,16.6667,6.66667,16.6667,6.66667C16.6667,7.1269,16.2936,7.5,15.8333,7.5C15.8333,7.5,10,7.5,10,7.5C9.53975,7.5,9.16667,7.1269,9.16667,6.66667C9.16667,6.66667,9.16667,0.833333,9.16667,0.833333C9.16667,0.833333,9.16667,0.833333,9.16667,0.833333ZM10.8333,1.66667C10.8333,1.66667,10.8333,5.83333,10.8333,5.83333C10.8333,5.83333,15,5.83333,15,5.83333C15,5.83333,15,1.66667,15,1.66667C15,1.66667,10.8333,1.66667,10.8333,1.66667C10.8333,1.66667,10.8333,1.66667,10.8333,1.66667ZM0,10C0,9.53975,0.373096,9.16667,0.833333,9.16667C0.833333,9.16667,6.66667,9.16667,6.66667,9.16667C7.1269,9.16667,7.5,9.53975,7.5,10C7.5,10,7.5,15.8333,7.5,15.8333C7.5,16.2936,7.1269,16.6667,6.66667,16.6667C6.66667,16.6667,0.833333,16.6667,0.833333,16.6667C0.373096,16.6667,0,16.2936,0,15.8333C0,15.8333,0,10,0,10C0,10,0,10,0,10ZM1.66667,10.8333C1.66667,10.8333,1.66667,15,1.66667,15C1.66667,15,5.83333,15,5.83333,15C5.83333,15,5.83333,10.8333,5.83333,10.8333C5.83333,10.8333,1.66667,10.8333,1.66667,10.8333C1.66667,10.8333,1.66667,10.8333,1.66667,10.8333ZM9.16667,10C9.16667,9.53975,9.53975,9.16667,10,9.16667C10,9.16667,15.8333,9.16667,15.8333,9.16667C16.2936,9.16667,16.6667,9.53975,16.6667,10C16.6667,10,16.6667,15.8333,16.6667,15.8333C16.6667,16.2936,16.2936,16.6667,15.8333,16.6667C15.8333,16.6667,10,16.6667,10,16.6667C9.53975,16.6667,9.16667,16.2936,9.16667,15.8333C9.16667,15.8333,9.16667,10,9.16667,10C9.16667,10,9.16667,10,9.16667,10ZM10.8333,10.8333C10.8333,10.8333,10.8333,15,10.8333,15C10.8333,15,15,15,15,15C15,15,15,10.8333,15,10.8333C15,10.8333,10.8333,10.8333,10.8333,10.8333C10.8333,10.8333,10.8333,10.8333,10.8333,10.8333Z" fill-rule="evenodd" fill="#767676" fill-opacity="1"/></g></svg>