<svg xmlns="http://www.w3.org/2000/svg" xmlns:xlink="http://www.w3.org/1999/xlink" fill="none" version="1.1" width="24" height="24" viewBox="0 0 24 24"><g><g style="opacity:0;"><g><rect x="0" y="0" width="24" height="24" rx="0" fill="#EEEEEE" fill-opacity="1"/></g></g><g><g><ellipse cx="12" cy="12" rx="10" ry="10" fill="#CCCCCC" fill-opacity="1"/></g></g><g><g><ellipse cx="8.5" cy="9.5" rx="1.5" ry="1.5" fill="#FFFFFF" fill-opacity="1"/></g></g><g><g><ellipse cx="15.5" cy="9.5" rx="1.5" ry="1.5" fill="#FFFFFF" fill-opacity="1"/></g></g><g><g><path d="M7.42709379296875,15.402219237060546Q7.29998779296875,15.221187237060548,7.29998779296875,15.000000237060547Q7.29998779296875,14.931057237060546,7.31344609296875,14.863437237060547Q7.32690429296875,14.795818237060548,7.35327149296875,14.732120237060547Q7.37966919296875,14.668426237060547,7.41796879296875,14.611099237060547Q7.45626879296875,14.553776237060546,7.50503579296875,14.505024237060546Q7.55377179296875,14.456276237060546,7.61111479296875,14.417972237060546Q7.66842679296875,14.379669237060547,7.73211679296875,14.353282937060547Q7.79580679296875,14.326900437060546,7.86343379296875,14.313449837060547Q7.93106079296875,14.299999237060547,7.99999979296875,14.299999237060547Q8.08428979296875,14.299999237060547,8.16616779296875,14.320007337060547Q8.24804679296875,14.340019237060547,8.32284779296875,14.378891037060546Q8.39761779296875,14.417766237060547,8.46105779296875,14.473282237060547Q8.52447779296875,14.528797237060546,8.57290779296875,14.597782237060548Q9.747407792968751,16.270699237060548,12.00976779296875,16.299519237060547Q14.25430779296875,16.328099237060545,15.42129779296875,14.613289237060547Q15.46944779296875,14.542537237060547,15.53323779296875,14.485470237060547Q15.59698779296875,14.428402237060547,15.67263779296875,14.388378137060547Q15.74828779296875,14.348358137060547,15.83135779296875,14.327739737060547Q15.91442779296875,14.307121277060547,15.99999779296875,14.307121277060547Q16.06893779296875,14.307121277060547,16.136567792968748,14.320571937060548Q16.20419779296875,14.334022537060546,16.26788779296875,14.360404937060547Q16.33157779296875,14.386787437060548,16.388887792968752,14.425091237060547Q16.44622779296875,14.463394237060546,16.49496779296875,14.512146237060547Q16.543727792968753,14.560898237060547,16.582027792968752,14.618221237060547Q16.62032779296875,14.675548237060546,16.64669779296875,14.739242237060546Q16.67309779296875,14.802940237060547,16.68655779296875,14.870559237060547Q16.700007792968748,14.938175237060547,16.700007792968748,15.007122237060546Q16.700007792968748,15.222717237060547,16.57870779296875,15.400959237060547Q14.98852779296875,17.737559237060548,11.99194779296875,17.699399237060547Q9.01324779296875,17.661469237060547,7.42709379296875,15.402219237060546Z" fill-rule="evenodd" fill="#FFFFFF" fill-opacity="1"/></g></g></g></svg>