<svg xmlns="http://www.w3.org/2000/svg" xmlns:xlink="http://www.w3.org/1999/xlink" fill="none" version="1.1" width="16" height="16" viewBox="0 0 16 16"><g><path d="M8,0C8.55228,0,9,0.447715,9,1C9,1,9,7,9,7C9,7,15,7,15,7C15.5523,7,16,7.44772,16,8C16,8.55228,15.5523,9,15,9C15,9,9,9,9,9C9,9,9,15,9,15C9,15.5523,8.55228,16,8,16C7.44772,16,7,15.5523,7,15C7,15,7,9,7,9C7,9,1,9,1,9C0.447715,9,0,8.55228,0,8C0,7.44772,0.447715,7,1,7C1,7,7,7,7,7C7,7,7,1,7,1C7,0.447715,7.44772,0,8,0C8,0,8,0,8,0Z" fill-rule="evenodd" fill="#000000" fill-opacity="1"/></g></svg>