<svg xmlns="http://www.w3.org/2000/svg" xmlns:xlink="http://www.w3.org/1999/xlink" fill="none" version="1.1" width="22" height="20.31878662109375" viewBox="0 0 22 20.31878662109375"><g><g><g><path d="M11.299611433105468,15.068133840332031Q11.488921433105467,15.068133840332031,11.67731143310547,15.049233840332032Q11.865701433105468,15.03033384033203,12.05136143310547,14.992723840332031Q12.237021433105468,14.955113840332032,12.418181433105469,14.89914384033203Q12.599331433105469,14.843173840332032,12.774221433105469,14.769393840332032Q12.949111433105468,14.695613840332031,13.116061433105468,14.604733840332031Q13.283011433105468,14.513843840332031,13.440411433105469,14.40673384033203Q13.59782143310547,14.299623840332032,13.744141433105469,14.177313840332031Q13.890471433105468,14.05500384033203,14.02433143310547,13.918673840332032Q14.158191433105468,13.782343840332032,14.27828143310547,13.633303840332031Q14.398381433105468,13.484273840332031,14.503541433105468,13.32396384033203Q14.60871143310547,13.163663840332031,14.69795143310547,12.993623840332031Q14.78718143310547,12.82359384033203,14.85963143310547,12.64547384033203Q14.932071433105468,12.46735384033203,14.987021433105468,12.28285384033203Q15.04197143310547,12.098353840332031,15.078901433105468,11.90926384033203Q15.11584143310547,11.720163840332031,15.134391433105469,11.528293840332031Q15.152951433105468,11.336423840332031,15.152951433105468,11.143633840332031Q15.152951433105468,10.950833840332031,15.134391433105469,10.758963840332031Q15.11584143310547,10.567093840332031,15.078901433105468,10.377993840332032Q15.04197143310547,10.188903840332031,14.987021433105468,10.004403840332031Q14.932071433105468,9.819903840332032,14.85963143310547,9.641783840332032Q14.78719143310547,9.463663840332032,14.69795143310547,9.293633840332031Q14.60871143310547,9.123593840332031,14.503541433105468,8.963293840332032Q14.398381433105468,8.80298384033203,14.27828143310547,8.653953840332031Q14.158191433105468,8.504913840332032,14.02433143310547,8.36858384033203Q13.890471433105468,8.232253840332032,13.744141433105469,8.10994684033203Q13.59782143310547,7.987636840332032,13.440411433105469,7.880523840332032Q13.283011433105468,7.773410840332032,13.116061433105468,7.682525840332032Q12.949111433105468,7.5916408403320315,12.774221433105469,7.517860840332031Q12.599331433105469,7.444080840332031,12.418181433105469,7.388114840332031Q12.237021433105468,7.332145840332031,12.05136143310547,7.2945327403320315Q11.865701433105468,7.256919840332031,11.67731143310547,7.238021840332031Q11.488921433105467,7.219123840332031,11.299611433105468,7.219123840332031Q11.110311433105469,7.219123840332031,10.921921433105469,7.238021840332031Q10.733531433105469,7.256919840332031,10.547861433105469,7.2945327403320315Q10.362201433105469,7.332145840332031,10.18105143310547,7.388114840332031Q9.99990143310547,7.444080840332031,9.82501143310547,7.517860840332031Q9.650111433105469,7.5916408403320315,9.483161433105469,7.682525840332032Q9.316211433105469,7.773410840332032,9.15882143310547,7.880523840332032Q9.001421433105468,7.987636840332032,8.855081433105468,8.10994684033203Q8.70875143310547,8.232253840332032,8.574901433105468,8.36858384033203Q8.441040433105469,8.504913840332032,8.320945433105468,8.653953840332031Q8.20085943310547,8.80298384033203,8.09568743310547,8.963293840332032Q7.990516433105469,9.123593840332031,7.901283433105469,9.293633840332031Q7.812042433105469,9.463663840332032,7.739601433105468,9.641783840332032Q7.667160433105469,9.819903840332032,7.612205433105469,10.004403840332031Q7.557258433105469,10.188903840332031,7.520324733105468,10.377993840332032Q7.483390833105469,10.567093840332031,7.464836133105469,10.758963840332031Q7.446281433105469,10.950833840332031,7.446281433105469,11.143633840332031Q7.446281433105469,11.336423840332031,7.464836133105469,11.528293840332031Q7.483390833105469,11.720163840332031,7.520324733105468,11.90926384033203Q7.557258433105469,12.098353840332031,7.612205433105469,12.28285384033203Q7.667160433105469,12.46735384033203,7.739601433105468,12.64547384033203Q7.812042433105469,12.82359384033203,7.901283433105469,12.993623840332031Q7.990516433105469,13.163663840332031,8.09568743310547,13.32396384033203Q8.20085943310547,13.484273840332031,8.320945433105468,13.633303840332031Q8.441040433105469,13.782343840332032,8.574901433105468,13.918673840332032Q8.70875143310547,14.05500384033203,8.855081433105468,14.177313840332031Q9.001421433105468,14.299623840332032,9.15882143310547,14.40673384033203Q9.316211433105469,14.513843840332031,9.483161433105469,14.604733840332031Q9.650111433105469,14.695613840332031,9.82501143310547,14.769393840332032Q9.99990143310547,14.843183840332031,10.18105143310547,14.89914384033203Q10.362201433105469,14.955113840332032,10.547861433105469,14.992723840332031Q10.733531433105469,15.03033384033203,10.921921433105469,15.049233840332032Q11.110311433105469,15.068133840332031,11.299611433105468,15.068133840332031ZM7.875129433105469,11.143623840332031C7.877380433105468,9.20520384033203,9.402891433105468,7.6253818403320315,11.305861433105468,7.590766840332031L11.305861433105468,7.6924128403320315C13.14859143310547,7.732680840332032,14.621791433105468,9.26563384033203,14.621791433105468,11.142833840332031C14.621791433105468,13.020033840332031,13.14859143310547,14.55298384033203,11.305861433105468,14.593253840332032L11.184221433105469,14.593253840332032L11.184221433105469,14.35025384033203L11.305861433105468,14.35025384033203C12.996241433105467,14.283853840332032,14.33299143310547,12.868893840332031,14.33299143310547,11.146013840332031C14.33299143310547,9.423123840332032,12.996241433105467,8.00816684033203,11.305861433105468,7.941764840332032L11.305861433105468,8.09106084033203C9.673681433105468,8.125568840332031,8.36711143310547,9.480943840332031,8.363227433105468,11.143623840332031L7.875129433105469,11.143623840332031ZM11.22788143310547,9.38703384033203L11.22788143310547,9.509323840332032C12.14794143310547,9.509323840332032,12.894041433105468,10.268493840332031,12.894901433105469,11.205553840332032L13.014981433105469,11.205553840332032C13.01326143310547,10.20131384033203,12.21390143310547,9.387903840332031,11.22788143310547,9.38703384033203ZM11.298051433105469,9.82856384033203L11.299611433105468,9.82856384033203C12.012861433105469,9.829423840332032,12.590811433105468,10.418573840332032,12.590811433105468,11.14520384033203C12.590811433105468,11.872363840332032,12.012021433105469,12.46183384033203,11.298051433105469,12.46183384033203C10.584071433105468,12.46183384033203,10.00529143310547,11.872363840332032,10.00529143310547,11.14520384033203C10.00529143310547,10.795733840332032,10.14170143310547,10.46059384033203,10.384481433105469,10.213633840332031C10.626891433105468,9.967043840332032,10.955481433105469,9.82856384033203,11.298051433105469,9.82856384033203ZM8.796741433105469,11.21350384033203L9.27392143310547,11.21350384033203C9.27392143310547,12.35380384033203,10.181551433105469,13.278203840332031,11.30117143310547,13.278203840332031C12.42079143310547,13.278203840332031,13.328421433105468,12.35380384033203,13.328421433105468,11.21350384033203L13.81028143310547,11.21350384033203C13.776361433105468,12.59873384033203,12.664031433105468,13.703693840332031,11.303511433105468,13.703693840332031C9.942991433105469,13.703693840332031,8.830661433105469,12.59873384033203,8.796741433105469,11.21350384033203Z" fill-rule="evenodd" fill="#EEEEEE" fill-opacity="1"/></g><g><path d="M11.299611433105468,15.068133840332031Q11.488921433105467,15.068133840332031,11.67731143310547,15.049233840332032Q11.865701433105468,15.03033384033203,12.05136143310547,14.992723840332031Q12.237021433105468,14.955113840332032,12.418181433105469,14.89914384033203Q12.599331433105469,14.843173840332032,12.774221433105469,14.769393840332032Q12.949111433105468,14.695613840332031,13.116061433105468,14.604733840332031Q13.283011433105468,14.513843840332031,13.440411433105469,14.40673384033203Q13.59782143310547,14.299623840332032,13.744141433105469,14.177313840332031Q13.890471433105468,14.05500384033203,14.02433143310547,13.918673840332032Q14.158191433105468,13.782343840332032,14.27828143310547,13.633303840332031Q14.398381433105468,13.484273840332031,14.503541433105468,13.32396384033203Q14.60871143310547,13.163663840332031,14.69795143310547,12.993623840332031Q14.78718143310547,12.82359384033203,14.85963143310547,12.64547384033203Q14.932071433105468,12.46735384033203,14.987021433105468,12.28285384033203Q15.04197143310547,12.098353840332031,15.078901433105468,11.90926384033203Q15.11584143310547,11.720163840332031,15.134391433105469,11.528293840332031Q15.152951433105468,11.336423840332031,15.152951433105468,11.143633840332031Q15.152951433105468,10.950833840332031,15.134391433105469,10.758963840332031Q15.11584143310547,10.567093840332031,15.078901433105468,10.377993840332032Q15.04197143310547,10.188903840332031,14.987021433105468,10.004403840332031Q14.932071433105468,9.819903840332032,14.85963143310547,9.641783840332032Q14.78719143310547,9.463663840332032,14.69795143310547,9.293633840332031Q14.60871143310547,9.123593840332031,14.503541433105468,8.963293840332032Q14.398381433105468,8.80298384033203,14.27828143310547,8.653953840332031Q14.158191433105468,8.504913840332032,14.02433143310547,8.36858384033203Q13.890471433105468,8.232253840332032,13.744141433105469,8.10994684033203Q13.59782143310547,7.987636840332032,13.440411433105469,7.880523840332032Q13.283011433105468,7.773410840332032,13.116061433105468,7.682525840332032Q12.949111433105468,7.5916408403320315,12.774221433105469,7.517860840332031Q12.599331433105469,7.444080840332031,12.418181433105469,7.388114840332031Q12.237021433105468,7.332145840332031,12.05136143310547,7.2945327403320315Q11.865701433105468,7.256919840332031,11.67731143310547,7.238021840332031Q11.488921433105467,7.219123840332031,11.299611433105468,7.219123840332031Q11.110311433105469,7.219123840332031,10.921921433105469,7.238021840332031Q10.733531433105469,7.256919840332031,10.547861433105469,7.2945327403320315Q10.362201433105469,7.332145840332031,10.18105143310547,7.388114840332031Q9.99990143310547,7.444080840332031,9.82501143310547,7.517860840332031Q9.650111433105469,7.5916408403320315,9.483161433105469,7.682525840332032Q9.316211433105469,7.773410840332032,9.15882143310547,7.880523840332032Q9.001421433105468,7.987636840332032,8.855081433105468,8.10994684033203Q8.70875143310547,8.232253840332032,8.574901433105468,8.36858384033203Q8.441040433105469,8.504913840332032,8.320945433105468,8.653953840332031Q8.20085943310547,8.80298384033203,8.09568743310547,8.963293840332032Q7.990516433105469,9.123593840332031,7.901283433105469,9.293633840332031Q7.812042433105469,9.463663840332032,7.739601433105468,9.641783840332032Q7.667160433105469,9.819903840332032,7.612205433105469,10.004403840332031Q7.557258433105469,10.188903840332031,7.520324733105468,10.377993840332032Q7.483390833105469,10.567093840332031,7.464836133105469,10.758963840332031Q7.446281433105469,10.950833840332031,7.446281433105469,11.143633840332031Q7.446281433105469,11.336423840332031,7.464836133105469,11.528293840332031Q7.483390833105469,11.720163840332031,7.520324733105468,11.90926384033203Q7.557258433105469,12.098353840332031,7.612205433105469,12.28285384033203Q7.667160433105469,12.46735384033203,7.739601433105468,12.64547384033203Q7.812042433105469,12.82359384033203,7.901283433105469,12.993623840332031Q7.990516433105469,13.163663840332031,8.09568743310547,13.32396384033203Q8.20085943310547,13.484273840332031,8.320945433105468,13.633303840332031Q8.441040433105469,13.782343840332032,8.574901433105468,13.918673840332032Q8.70875143310547,14.05500384033203,8.855081433105468,14.177313840332031Q9.001421433105468,14.299623840332032,9.15882143310547,14.40673384033203Q9.316211433105469,14.513843840332031,9.483161433105469,14.604733840332031Q9.650111433105469,14.695613840332031,9.82501143310547,14.769393840332032Q9.99990143310547,14.843183840332031,10.18105143310547,14.89914384033203Q10.362201433105469,14.955113840332032,10.547861433105469,14.992723840332031Q10.733531433105469,15.03033384033203,10.921921433105469,15.049233840332032Q11.110311433105469,15.068133840332031,11.299611433105468,15.068133840332031ZM7.875129433105469,11.143623840332031C7.877380433105468,9.20520384033203,9.402891433105468,7.6253818403320315,11.305861433105468,7.590766840332031L11.305861433105468,7.6924128403320315C13.14859143310547,7.732680840332032,14.621791433105468,9.26563384033203,14.621791433105468,11.142833840332031C14.621791433105468,13.020033840332031,13.14859143310547,14.55298384033203,11.305861433105468,14.593253840332032L11.184221433105469,14.593253840332032L11.184221433105469,14.35025384033203L11.305861433105468,14.35025384033203C12.996241433105467,14.283853840332032,14.33299143310547,12.868893840332031,14.33299143310547,11.146013840332031C14.33299143310547,9.423123840332032,12.996241433105467,8.00816684033203,11.305861433105468,7.941764840332032L11.305861433105468,8.09106084033203C9.673681433105468,8.125568840332031,8.36711143310547,9.480943840332031,8.363227433105468,11.143623840332031L7.875129433105469,11.143623840332031ZM11.22788143310547,9.38703384033203L11.22788143310547,9.509323840332032C12.14794143310547,9.509323840332032,12.894041433105468,10.268493840332031,12.894901433105469,11.205553840332032L13.014981433105469,11.205553840332032C13.01326143310547,10.20131384033203,12.21390143310547,9.387903840332031,11.22788143310547,9.38703384033203ZM11.298051433105469,9.82856384033203L11.299611433105468,9.82856384033203C12.012861433105469,9.829423840332032,12.590811433105468,10.418573840332032,12.590811433105468,11.14520384033203C12.590811433105468,11.872363840332032,12.012021433105469,12.46183384033203,11.298051433105469,12.46183384033203C10.584071433105468,12.46183384033203,10.00529143310547,11.872363840332032,10.00529143310547,11.14520384033203C10.00529143310547,10.795733840332032,10.14170143310547,10.46059384033203,10.384481433105469,10.213633840332031C10.626891433105468,9.967043840332032,10.955481433105469,9.82856384033203,11.298051433105469,9.82856384033203ZM8.796741433105469,11.21350384033203L9.27392143310547,11.21350384033203C9.27392143310547,12.35380384033203,10.181551433105469,13.278203840332031,11.30117143310547,13.278203840332031C12.42079143310547,13.278203840332031,13.328421433105468,12.35380384033203,13.328421433105468,11.21350384033203L13.81028143310547,11.21350384033203C13.776361433105468,12.59873384033203,12.664031433105468,13.703693840332031,11.303511433105468,13.703693840332031C9.942991433105469,13.703693840332031,8.830661433105469,12.59873384033203,8.796741433105469,11.21350384033203Z" fill-rule="evenodd" fill="#cccccc" fill-opacity="1"/></g></g><g><g><path d="M20.398858874511717,12.792204412841796C20.398858874511717,13.278204412841797,20.03395887451172,13.873784412841797,19.68305887451172,14.150144412841797L15.53345887451172,18.254114412841798C14.187658874511719,19.624754412841796,12.726458874511719,20.318804412841796,11.167068874511719,20.318804412841796L11.062588874511718,20.318804412841796C8.80765887451172,20.274334412841796,7.293458874511718,18.7655244128418,7.031478874511719,18.485994412841798L2.9629438745117187,14.275614412841797C2.5637278745117187,13.873784412841797,2.1832351684117186,13.322674412841797,2.1832351684117186,12.811264412841798C2.179267884511719,12.422714412841797,2.3307948745117186,12.049259412841797,2.6029208745117187,11.776901412841797C2.8750458745117187,11.504543412841796,3.244318874511719,11.356754302841797,3.625698874511719,11.367568972841797C4.127838874511719,11.367568972841797,4.578508874511719,11.685215412841798,4.960558874511719,12.131507412841797L8.692268874511718,16.059184412841798C9.28795887451172,16.576944412841797,10.00061887451172,17.213824412841795,11.114048874511719,17.224944412841797C11.857888874511719,17.240824412841796,12.770158874511718,16.872354412841798,13.548258874511719,16.0814244128418L17.69795887451172,12.063213412841797C18.021958874511718,11.647609412841797,18.50475887451172,11.392757412841798,19.024958874511718,11.362804412841797C19.842158874511718,11.362804412841797,20.398858874511717,11.959980412841796,20.398858874511717,12.792204412841796Z" fill="#EEEEEE" fill-opacity="1"/></g><g><path d="M20.398858874511717,12.792204412841796C20.398858874511717,13.278204412841797,20.03395887451172,13.873784412841797,19.68305887451172,14.150144412841797L15.53345887451172,18.254114412841798C14.187658874511719,19.624754412841796,12.726458874511719,20.318804412841796,11.167068874511719,20.318804412841796L11.062588874511718,20.318804412841796C8.80765887451172,20.274334412841796,7.293458874511718,18.7655244128418,7.031478874511719,18.485994412841798L2.9629438745117187,14.275614412841797C2.5637278745117187,13.873784412841797,2.1832351684117186,13.322674412841797,2.1832351684117186,12.811264412841798C2.179267884511719,12.422714412841797,2.3307948745117186,12.049259412841797,2.6029208745117187,11.776901412841797C2.8750458745117187,11.504543412841796,3.244318874511719,11.356754302841797,3.625698874511719,11.367568972841797C4.127838874511719,11.367568972841797,4.578508874511719,11.685215412841798,4.960558874511719,12.131507412841797L8.692268874511718,16.059184412841798C9.28795887451172,16.576944412841797,10.00061887451172,17.213824412841795,11.114048874511719,17.224944412841797C11.857888874511719,17.240824412841796,12.770158874511718,16.872354412841798,13.548258874511719,16.0814244128418L17.69795887451172,12.063213412841797C18.021958874511718,11.647609412841797,18.50475887451172,11.392757412841798,19.024958874511718,11.362804412841797C19.842158874511718,11.362804412841797,20.398858874511717,11.959980412841796,20.398858874511717,12.792204412841796Z" fill="#cccccc" fill-opacity="1"/></g></g><g><g><path d="M21.8148,8.55165C21.7792,8.50274,21.7401,8.45655,21.6978,8.41347L16.2555,2.68633Q10.8552,-2.97569,5.57498,3.29621L0.57547,8.52782C0.208321,8.83195,-0.00336456,9.28942,0.000038147,9.7714C0.0156326,10.3956,0.603539,10.899,1.1852,10.9054C1.57455,10.9387,1.95704,10.7862,2.22066,10.4924C2.31578,10.4194,2.50915,10.2098,2.5996,10.1161L3.17191,9.5157C3.52589,9.79205,4.86076,10.1923,6.13481,8.85023C6.20966,8.77241,6.30323,8.71523,6.37808,8.63741C7.46967,7.49071,8.27122,6.80142,8.82481,6.22172C9.96163,5.02896,12.1479,4.65732,13.5202,6.09625C15.0781,7.72736,15.5943,8.23559,15.7502,8.39918C15.7853,8.43453,15.8223,8.46793,15.8609,8.49924C15.9998,8.66144,16.1913,8.76741,16.4005,8.79782C16.6646,8.85158,16.9305,8.71358,17.043,8.46429C17.0923,8.31868,17.0923,8.16044,17.043,8.01483C17.043,7.97989,16.9525,7.82265,16.9416,7.7893L17.7775,8.67712C17.9677,8.87247,18.1533,9.04876,18.4153,9.05829C18.5861,9.07299,18.7552,9.01395,18.8812,8.89556C19.0072,8.77717,19.0786,8.61032,19.078,8.43571C19.0804,8.25631,19.0215,8.08166,18.9112,7.94177C18.8876,7.90319,18.8605,7.86702,18.8301,7.83377L15.0204,3.84415C14.0645,2.89121,13.1818,2.37186,12.3928,2.13522C12.309,2.08443,12.2673,1.98408,12.2898,1.88745C12.321,1.78898,12.4567,1.79851,12.5113,1.80645Q14.0348,2.30992,15.1264,3.56144L20.5314,9.24888C20.5501,9.26953,20.5735,9.28858,20.5953,9.30764C20.7604,9.51138,20.9927,9.64688,21.2487,9.68882C21.574,9.7477,21.8913,9.55001,21.9879,9.22823C22.0286,8.98784,21.9655,8.74124,21.8148,8.55165Z" fill="#EEEEEE" fill-opacity="1"/></g><g><path d="M21.8148,8.55165C21.7792,8.50274,21.7401,8.45655,21.6978,8.41347L16.2555,2.68633Q10.8552,-2.97569,5.57498,3.29621L0.57547,8.52782C0.208321,8.83195,-0.00336456,9.28942,0.000038147,9.7714C0.0156326,10.3956,0.603539,10.899,1.1852,10.9054C1.57455,10.9387,1.95704,10.7862,2.22066,10.4924C2.31578,10.4194,2.50915,10.2098,2.5996,10.1161L3.17191,9.5157C3.52589,9.79205,4.86076,10.1923,6.13481,8.85023C6.20966,8.77241,6.30323,8.71523,6.37808,8.63741C7.46967,7.49071,8.27122,6.80142,8.82481,6.22172C9.96163,5.02896,12.1479,4.65732,13.5202,6.09625C15.0781,7.72736,15.5943,8.23559,15.7502,8.39918C15.7853,8.43453,15.8223,8.46793,15.8609,8.49924C15.9998,8.66144,16.1913,8.76741,16.4005,8.79782C16.6646,8.85158,16.9305,8.71358,17.043,8.46429C17.0923,8.31868,17.0923,8.16044,17.043,8.01483C17.043,7.97989,16.9525,7.82265,16.9416,7.7893L17.7775,8.67712C17.9677,8.87247,18.1533,9.04876,18.4153,9.05829C18.5861,9.07299,18.7552,9.01395,18.8812,8.89556C19.0072,8.77717,19.0786,8.61032,19.078,8.43571C19.0804,8.25631,19.0215,8.08166,18.9112,7.94177C18.8876,7.90319,18.8605,7.86702,18.8301,7.83377L15.0204,3.84415C14.0645,2.89121,13.1818,2.37186,12.3928,2.13522C12.309,2.08443,12.2673,1.98408,12.2898,1.88745C12.321,1.78898,12.4567,1.79851,12.5113,1.80645Q14.0348,2.30992,15.1264,3.56144L20.5314,9.24888C20.5501,9.26953,20.5735,9.28858,20.5953,9.30764C20.7604,9.51138,20.9927,9.64688,21.2487,9.68882C21.574,9.7477,21.8913,9.55001,21.9879,9.22823C22.0286,8.98784,21.9655,8.74124,21.8148,8.55165Z" fill="#cccccc" fill-opacity="1"/></g></g></g></svg>