<svg xmlns="http://www.w3.org/2000/svg" xmlns:xlink="http://www.w3.org/1999/xlink" fill="none" version="1.1" width="8" height="14" viewBox="0 0 8 14"><g><path d="M0.292893,0.292893C0.683417,-0.0976311,1.31658,-0.0976311,1.70711,0.292893C1.70711,0.292893,7.70711,6.29289,7.70711,6.29289C8.09763,6.68342,8.09763,7.31658,7.70711,7.70711C7.70711,7.70711,1.70711,13.7071,1.70711,13.7071C1.31658,14.0976,0.683417,14.0976,0.292893,13.7071C-0.0976311,13.3166,-0.0976311,12.6834,0.292893,12.2929C0.292893,12.2929,5.58579,7,5.58579,7C5.58579,7,0.292893,1.70711,0.292893,1.70711C-0.0976311,1.31658,-0.0976311,0.683417,0.292893,0.292893C0.292893,0.292893,0.292893,0.292893,0.292893,0.292893Z" fill-rule="evenodd" fill="#000000" fill-opacity="1"/></g></svg>