<svg xmlns="http://www.w3.org/2000/svg" xmlns:xlink="http://www.w3.org/1999/xlink" fill="none" version="1.1" width="16.66666603088379" height="16.66666603088379" viewBox="0 0 16.66666603088379 16.66666603088379"><g><path d="M7.5,1.66667C4.27834,1.66667,1.66667,4.27834,1.66667,7.5C1.66667,10.7217,4.27834,13.3333,7.5,13.3333C9.07158,13.3333,10.4981,12.7118,11.547,11.7012C11.5689,11.6727,11.5929,11.6452,11.6191,11.6191C11.6452,11.5929,11.6727,11.5689,11.7012,11.547C12.7118,10.4981,13.3333,9.07158,13.3333,7.5C13.3333,4.27834,10.7217,1.66667,7.5,1.66667C7.5,1.66667,7.5,1.66667,7.5,1.66667ZM13.3599,12.1814C14.3862,10.8983,15,9.27083,15,7.5C15,3.35787,11.6422,0,7.5,0C3.35787,0,0,3.35787,0,7.5C0,11.6422,3.35787,15,7.5,15C9.27083,15,10.8983,14.3862,12.1814,13.3599C12.1814,13.3599,15.2441,16.4226,15.2441,16.4226C15.5695,16.748,16.0972,16.748,16.4226,16.4226C16.748,16.0972,16.748,15.5695,16.4226,15.2441C16.4226,15.2441,13.3599,12.1814,13.3599,12.1814C13.3599,12.1814,13.3599,12.1814,13.3599,12.1814Z" fill-rule="evenodd" fill="#767676" fill-opacity="1"/></g></svg>