<?xml version="1.0" standalone="no"?><!DOCTYPE svg PUBLIC "-//W3C//DTD SVG 1.1//EN" "http://www.w3.org/Graphics/SVG/1.1/DTD/svg11.dtd"><svg t="1721108475323" class="icon" viewBox="0 0 1024 1024" version="1.1" xmlns="http://www.w3.org/2000/svg" p-id="970" xmlns:xlink="http://www.w3.org/1999/xlink" width="200" height="200"><path d="M981.333333 382.208s-56.149333 57.685333-138.496 137.984a55.466667 55.466667 0 0 0-17.493333 42.922667c0.085333 79.445333-0.256 158.805333-0.597333 238.336-0.085333 22.186667-0.853333 23.125333-23.552 23.125333H225.109333c-21.248 0-25.770667-4.266667-25.856-24.917333V221.269333c0-20.736 2.389333-22.954667 22.869334-23.04 80.469333-0.170667 161.024-0.512 241.408-0.256a52.906667 52.906667 0 0 0 40.96-17.664C579.925333 102.912 641.706667 42.581333 641.706667 42.581333L67.328 42.752C46.421333 42.752 42.752 46.421333 42.752 66.816v890.112c0 20.309333 4.181333 24.32 24.32 24.32h889.173333c21.418667 0 25.002667-3.669333 25.002667-25.258667l0.085333-573.781333zM336.896 505.856c-2.304 25.941333-0.682667 52.224-0.682667 78.250667 0 26.709333-0.170667 53.333333 0.085334 79.957333 0.170667 19.541333 4.266667 23.893333 23.381333 23.978667 52.736 0.170667 105.557333 1.024 158.208-0.597334a59.818667 59.818667 0 0 0 36.778667-15.274666c136.106667-134.741333 271.445333-270.250667 406.869333-405.76 13.056-13.056 13.056-19.114667 0.256-32.085334-56.661333-57.173333-113.322667-114.261333-170.24-171.349333-13.994667-13.824-20.48-13.738667-34.816 0.512C621.738667 198.570667 486.570667 333.568 352.256 469.333333a63.146667 63.146667 0 0 0-15.36 36.522667z"  p-id="971"></path></svg>