<?xml version="1.0" standalone="no"?><!DOCTYPE svg PUBLIC "-//W3C//DTD SVG 1.1//EN" "http://www.w3.org/Graphics/SVG/1.1/DTD/svg11.dtd"><svg class="icon" width="200px" height="200.00px" viewBox="0 0 1024 1024" version="1.1" xmlns="http://www.w3.org/2000/svg"><path d="M874.04 149.96c-200.06-199.67-524.01-199.67-724.08 0-199.67 200.07-199.67 524.01 0 724.08 200.06 199.66 524.01 199.67 724.08 0 199.67-200.06 199.67-524.02 0-724.08zM512 960c-247.3-0.29-447.71-200.7-448-448 0.29-247.3 200.7-447.71 448-448 247.3 0.29 447.71 200.7 448 448-0.28 247.3-200.7 447.71-448 448z m242.15-259.82c14.83 14.83 14.83 38.86 0 53.69-7.42 7.41-17.11 11.12-26.85 11.12-9.74 0-19.43-3.71-26.84-11.12L513.12 566.53 325.77 753.88c-7.42 7.41-17.11 11.12-26.85 11.12-9.74 0-19.43-3.71-26.84-11.12-14.83-14.83-14.83-38.86 0-53.69l187.34-187.34L272.08 325.5c-14.83-14.83-14.83-38.86 0-53.69 14.83-14.83 38.86-14.83 53.69 0l187.34 187.34 187.34-187.34c14.83-14.83 38.86-14.83 53.69 0 14.83 14.83 14.83 38.86 0 53.69L566.81 512.84l187.34 187.34z" /></svg>