<?xml version="1.0" standalone="no"?><!DOCTYPE svg PUBLIC "-//W3C//DTD SVG 1.1//EN" "http://www.w3.org/Graphics/SVG/1.1/DTD/svg11.dtd"><svg class="icon" width="200px" height="200.00px" viewBox="0 0 1024 1024" version="1.1" xmlns="http://www.w3.org/2000/svg"><path d="M460.800782 784.814036c-12.600696 0.028444-24.660957-4.977702-33.563931-13.880676L230.31897 573.446599a48.354817 48.354817 0 0 1 2.787513-65.250559 48.041933 48.041933 0 0 1 65.051451-2.759069l162.614404 163.837497L876.481543 251.631071a48.041933 48.041933 0 0 1 65.05145 2.759069 48.354817 48.354817 0 0 1 2.759069 65.250559l-449.984236 451.292661c-8.874531 8.902975-20.934791 13.909121-33.535488 13.880676zM511.800892 1023.999716c-218.250888 0.14222-412.438143-138.920544-483.20684-345.992937-70.768697-207.072392-2.446185-436.331112 169.981403-570.52995a509.289997 509.289997 0 0 1 593.285158-23.324088 36.578997 36.578997 0 0 1-1.99108 65.421223c-12.600696 5.802578-27.363138 3.982161-38.114974-4.75015A436.587108 436.587108 0 0 0 215.897857 188.599145c-147.567523 135.877035-184.28874 354.924355-89.115083 531.732321 95.173657 176.807965 297.92256 266.235933 492.166703 217.027795 194.244143-49.208137 330.377175-224.394794 330.462507-425.323279a446.002075 446.002075 0 0 0 0-45.339752 36.692773 36.692773 0 0 1 72.930441-7.310111c0.85332 17.52151 0.85332 35.099908 0 52.649863 0 135.791703-53.787623 266.00838-149.53016 362.035357A509.716657 509.716657 0 0 1 511.85778 1023.999716z" /></svg>